<svg width="22" height="22" viewBox="0 0 22 22" fill="none" xmlns="http://www.w3.org/2000/svg">
<path d="M7.04001 1.31995C3.8863 1.31995 1.32001 3.88624 1.32001 7.03995V14.9599C1.32001 18.1137 3.8863 20.6799 7.04001 20.6799H14.96C18.1137 20.6799 20.68 18.1137 20.68 14.9599V7.03995C20.68 3.88624 18.1137 1.31995 14.96 1.31995H7.04001ZM7.04001 2.19995H14.96C17.6381 2.19995 19.8 4.36189 19.8 7.03995V14.9599C19.8 17.638 17.6381 19.7999 14.96 19.7999H7.04001C4.36195 19.7999 2.20001 17.638 2.20001 14.9599V7.03995C2.20001 4.36189 4.36195 2.19995 7.04001 2.19995ZM16.28 4.83995C16.0466 4.83995 15.8228 4.93266 15.6578 5.09769C15.4927 5.26272 15.4 5.48656 15.4 5.71995C15.4 5.95334 15.4927 6.17717 15.6578 6.3422C15.8228 6.50723 16.0466 6.59995 16.28 6.59995C16.5134 6.59995 16.7372 6.50723 16.9023 6.3422C17.0673 6.17717 17.16 5.95334 17.16 5.71995C17.16 5.48656 17.0673 5.26272 16.9023 5.09769C16.7372 4.93266 16.5134 4.83995 16.28 4.83995ZM11 6.15995C8.33216 6.15995 6.16001 8.3321 6.16001 10.9999C6.16001 13.6678 8.33216 15.8399 11 15.8399C13.6679 15.8399 15.84 13.6678 15.84 10.9999C15.84 8.3321 13.6679 6.15995 11 6.15995ZM11 7.03995C13.1923 7.03995 14.96 8.80769 14.96 10.9999C14.96 13.1922 13.1923 14.9599 11 14.9599C8.80775 14.9599 7.04001 13.1922 7.04001 10.9999C7.04001 8.80769 8.80775 7.03995 11 7.03995Z" fill="black"/>
</svg>
